<?xml version="1.0" encoding="utf-8"?>
<!-- Generator: Adobe Illustrator 15.1.0, SVG Export Plug-In  -->
<!DOCTYPE svg PUBLIC "-//W3C//DTD SVG 1.1//EN" "http://www.w3.org/Graphics/SVG/1.1/DTD/svg11.dtd" [
	<!ENTITY ns_flows "http://ns.adobe.com/Flows/1.0/">
]>
<svg version="1.1"
	 xmlns="http://www.w3.org/2000/svg" xmlns:xlink="http://www.w3.org/1999/xlink" xmlns:a="http://ns.adobe.com/AdobeSVGViewerExtensions/3.0/"
	 x="0px" y="0px" width="130px" height="110px" viewBox="0 0 130 110" overflow="visible" enable-background="new 0 0 130 110"
	 xml:space="preserve">
<defs>
</defs>
<rect y="80" fill="#009FE3" width="30" height="10"/>
<rect y="100" fill="#009FE3" width="30" height="10"/>
<rect x="40" y="70" fill="#009FE3" width="20" height="10"/>
<rect x="50" y="80" fill="#009FE3" width="10" height="10"/>
<rect x="60" y="90" fill="#009FE3" width="10" height="10"/>
<rect x="70" y="70" fill="#009FE3" width="20" height="10"/>
<rect x="80" y="80" fill="#009FE3" width="10" height="10"/>
<rect x="100" y="80" fill="#009FE3" width="30" height="10"/>
<rect x="100" y="100" fill="#009FE3" width="30" height="10"/>
<rect x="40" y="40" fill="#009FE3" width="10" height="20"/>
<rect x="60" y="40" fill="#009FE3" width="10" height="20"/>
<rect x="90" y="50" fill="#009FE3" width="10" height="10"/>
<rect x="100" y="20" fill="#009FE3" width="10" height="30"/>
<rect x="70" y="20" fill="#009FE3" width="10" height="20"/>
<rect x="80" fill="#009FE3" width="10" height="10"/>
<rect x="80" y="10" fill="#009FE3" width="20" height="10"/>
<rect x="50" y="20" fill="#009FE3" width="10" height="20"/>
<rect x="60" fill="#009FE3" width="10" height="20"/>
</svg>
