<svg xmlns="http://www.w3.org/2000/svg" version="1.0">
<path style="fill:#ffffff; stroke:none;" d="M0 0L0 300L300 300L300 0L0 0z"/>
<path style="fill:#010101; stroke:none;" d="M141 20L141 52L125 52L125 84L109 84L109 116L125 116L125 84L141 84L141 116L157 116L157 84L173 84L173 52L205 52L205 100L189 100L189 116L205 116L205 100L221 100L221 52L205 52L205 36L189 36L189 20L173 20L173 52L157 52L157 20L141 20z"/>
<path style="fill:#ffffff; stroke:none;" d="M141 52L141 84L157 84L157 52L141 52z"/>
<path style="fill:#010101; stroke:none;" d="M109 132L109 148L125 148L125 164L141 164L141 180L157 180L157 164L141 164L141 132L109 132M157 132L157 148L173 148L173 164L189 164L189 132L157 132M45 148L45 164L93 164L93 148L45 148M205 148L205 164L253 164L253 148L205 148M45 180L45 196L93 196L93 180L45 180M205 180L205 196L253 196L253 180L205 180M61 212L61 244L77 244L77 212L61 212M93 212L93 292L109 292L109 212L93 212M157 212L157 292L173 292L173 276L205 276L205 260L173 260L173 212L157 212M221 212L221 228L189 228L189 244L221 244L221 291L237 291L237 212L221 212M125 228L125 244L141 244L141 228L125 228M61 260L61 292L77 292L77 260L61 260M125 260L125 292L141 292L141 260L125 260z"/>
</svg>
